# xmcd
#
# Track frame offsets: 
#        150
#        15440
#        33224
#        55136
#        71056
#
# Disc length: 1244 seconds
#
# Revision: 0
# Processed by: cddbd v1.5.2PL0 Copyright (c) Steve Scherf et al.
# Submitted via: ExactAudioCopy v0.99pb4
#
DISCID=3604da05
DTITLE=Bethzaida - A Prelude To The Nine Worlds ...
DYEAR=1997
DGENRE=Death Metal
TTITLE0=All My Life
TTITLE1=Decay
TTITLE2=Dawn
TTITLE3=Nine Worlds
TTITLE4=The Outsiders
EXTD=
EXTT0=
EXTT1=
EXTT2=
EXTT3=
EXTT4=
PLAYORDER=
